<mxfile host="app.diagrams.net" modified="2024-03-10T10:34:22.808Z" agent="Mozilla/5.0 (Windows NT 10.0; Win64; x64; rv:123.0) Gecko/20100101 Firefox/123.0" etag="ispiiy5P-rXmo5eowdiU" version="24.0.4" type="github">
  <diagram id="C5RBs43oDa-KdzZeNtuy" name="Page-1">
    <mxGraphModel dx="1434" dy="1951" grid="1" gridSize="10" guides="1" tooltips="1" connect="1" arrows="1" fold="1" page="1" pageScale="1" pageWidth="827" pageHeight="1169" math="0" shadow="0">
      <root>
        <mxCell id="WIyWlLk6GJQsqaUBKTNV-0" />
        <mxCell id="WIyWlLk6GJQsqaUBKTNV-1" parent="WIyWlLk6GJQsqaUBKTNV-0" />
        <mxCell id="8aCBW3RIHDEwfv0liwKR-14" style="edgeStyle=orthogonalEdgeStyle;rounded=0;orthogonalLoop=1;jettySize=auto;html=1;exitX=1;exitY=0.5;exitDx=0;exitDy=0;" edge="1" parent="WIyWlLk6GJQsqaUBKTNV-1" source="8aCBW3RIHDEwfv0liwKR-1">
          <mxGeometry relative="1" as="geometry">
            <mxPoint x="440" y="-1130" as="targetPoint" />
          </mxGeometry>
        </mxCell>
        <mxCell id="8aCBW3RIHDEwfv0liwKR-1" value="&lt;div&gt;UŻYTKOWNIK&lt;/div&gt;" style="rounded=0;whiteSpace=wrap;html=1;" vertex="1" parent="WIyWlLk6GJQsqaUBKTNV-1">
          <mxGeometry x="320" y="-1150" width="120" height="50" as="geometry" />
        </mxCell>
        <mxCell id="8aCBW3RIHDEwfv0liwKR-6" value="&lt;div&gt;URUCHOMIENIE&lt;/div&gt;&lt;div&gt;APLIKACJI&lt;br&gt;&lt;/div&gt;" style="rounded=1;whiteSpace=wrap;html=1;" vertex="1" parent="WIyWlLk6GJQsqaUBKTNV-1">
          <mxGeometry x="320" y="-1050" width="120" height="60" as="geometry" />
        </mxCell>
        <mxCell id="8aCBW3RIHDEwfv0liwKR-12" value="" style="endArrow=classic;html=1;rounded=0;exitX=0.5;exitY=1;exitDx=0;exitDy=0;entryX=0.5;entryY=0;entryDx=0;entryDy=0;" edge="1" parent="WIyWlLk6GJQsqaUBKTNV-1" source="8aCBW3RIHDEwfv0liwKR-1" target="8aCBW3RIHDEwfv0liwKR-6">
          <mxGeometry width="50" height="50" relative="1" as="geometry">
            <mxPoint x="230" y="370" as="sourcePoint" />
            <mxPoint x="280" y="320" as="targetPoint" />
          </mxGeometry>
        </mxCell>
        <mxCell id="8aCBW3RIHDEwfv0liwKR-15" value="&lt;div&gt;PRZEJŚCIE DO &lt;br&gt;&lt;/div&gt;&lt;div&gt;WYDATKÓW&lt;br&gt;&lt;/div&gt;" style="rounded=1;whiteSpace=wrap;html=1;fillColor=#008a00;fontColor=#000000;strokeColor=#005700;" vertex="1" parent="WIyWlLk6GJQsqaUBKTNV-1">
          <mxGeometry x="680" y="-940" width="120" height="60" as="geometry" />
        </mxCell>
        <mxCell id="8aCBW3RIHDEwfv0liwKR-16" value="PRZEJŚCIE DO HISTORIA ZAKUPÓW" style="rounded=1;whiteSpace=wrap;html=1;fillColor=#0050ef;fontColor=#000000;strokeColor=#001DBC;" vertex="1" parent="WIyWlLk6GJQsqaUBKTNV-1">
          <mxGeometry x="460" y="-940" width="120" height="60" as="geometry" />
        </mxCell>
        <mxCell id="8aCBW3RIHDEwfv0liwKR-17" value="&lt;div&gt;PRZEJŚCIE DO&lt;/div&gt;&lt;div&gt;LISTY ZAKUPÓW&lt;br&gt;&lt;/div&gt;" style="rounded=1;whiteSpace=wrap;html=1;fillColor=#fa6800;fontColor=#FFFFFF;strokeColor=#C73500;" vertex="1" parent="WIyWlLk6GJQsqaUBKTNV-1">
          <mxGeometry x="180" y="-940" width="120" height="60" as="geometry" />
        </mxCell>
        <mxCell id="8aCBW3RIHDEwfv0liwKR-18" value="&lt;div&gt;WYŁĄCZENIE &lt;br&gt;&lt;/div&gt;&lt;div&gt;APLIKACJI&lt;/div&gt;" style="rounded=1;whiteSpace=wrap;html=1;fillColor=#ff0000;fontColor=#000000;" vertex="1" parent="WIyWlLk6GJQsqaUBKTNV-1">
          <mxGeometry y="-120" width="120" height="60" as="geometry" />
        </mxCell>
        <mxCell id="8aCBW3RIHDEwfv0liwKR-19" value="" style="endArrow=classic;html=1;rounded=0;exitX=1;exitY=1;exitDx=0;exitDy=0;entryX=0.5;entryY=0;entryDx=0;entryDy=0;fillColor=#008a00;strokeColor=#005700;" edge="1" parent="WIyWlLk6GJQsqaUBKTNV-1" source="8aCBW3RIHDEwfv0liwKR-6" target="8aCBW3RIHDEwfv0liwKR-15">
          <mxGeometry width="50" height="50" relative="1" as="geometry">
            <mxPoint x="450" y="-690" as="sourcePoint" />
            <mxPoint x="500" y="-740" as="targetPoint" />
          </mxGeometry>
        </mxCell>
        <mxCell id="8aCBW3RIHDEwfv0liwKR-20" value="" style="endArrow=classic;html=1;rounded=0;entryX=0.5;entryY=0;entryDx=0;entryDy=0;fillColor=#0050ef;strokeColor=#001DBC;" edge="1" parent="WIyWlLk6GJQsqaUBKTNV-1" target="8aCBW3RIHDEwfv0liwKR-16">
          <mxGeometry width="50" height="50" relative="1" as="geometry">
            <mxPoint x="410" y="-990" as="sourcePoint" />
            <mxPoint x="500" y="-740" as="targetPoint" />
          </mxGeometry>
        </mxCell>
        <mxCell id="8aCBW3RIHDEwfv0liwKR-21" value="" style="endArrow=classic;html=1;rounded=0;exitX=0.25;exitY=1;exitDx=0;exitDy=0;entryX=0.5;entryY=0;entryDx=0;entryDy=0;fillColor=#fa6800;strokeColor=#C73500;" edge="1" parent="WIyWlLk6GJQsqaUBKTNV-1" source="8aCBW3RIHDEwfv0liwKR-6" target="8aCBW3RIHDEwfv0liwKR-17">
          <mxGeometry width="50" height="50" relative="1" as="geometry">
            <mxPoint x="450" y="-690" as="sourcePoint" />
            <mxPoint x="500" y="-740" as="targetPoint" />
          </mxGeometry>
        </mxCell>
        <mxCell id="8aCBW3RIHDEwfv0liwKR-25" value="&lt;div&gt;ŚLEDZENIE&lt;/div&gt;&lt;div&gt;WYDATKÓW&lt;br&gt;&lt;/div&gt;" style="rounded=1;whiteSpace=wrap;html=1;fillColor=#008a00;fontColor=#000000;strokeColor=#005700;" vertex="1" parent="WIyWlLk6GJQsqaUBKTNV-1">
          <mxGeometry x="630" y="-800" width="120" height="60" as="geometry" />
        </mxCell>
        <mxCell id="8aCBW3RIHDEwfv0liwKR-26" value="&lt;div&gt;ŚLEDZENIE &lt;br&gt;&lt;/div&gt;&lt;div&gt;HISTORII ZAKUPÓW&lt;br&gt;&lt;/div&gt;" style="rounded=1;whiteSpace=wrap;html=1;fillColor=#0050ef;fontColor=#000000;strokeColor=#001DBC;" vertex="1" parent="WIyWlLk6GJQsqaUBKTNV-1">
          <mxGeometry x="400" y="-800" width="120" height="60" as="geometry" />
        </mxCell>
        <mxCell id="8aCBW3RIHDEwfv0liwKR-27" value="POWRÓT" style="rounded=1;whiteSpace=wrap;html=1;fillColor=#008a00;fontColor=#000000;strokeColor=#005700;" vertex="1" parent="WIyWlLk6GJQsqaUBKTNV-1">
          <mxGeometry x="670" y="-730" width="120" height="60" as="geometry" />
        </mxCell>
        <mxCell id="8aCBW3RIHDEwfv0liwKR-28" value="" style="edgeStyle=segmentEdgeStyle;endArrow=classic;html=1;curved=0;rounded=0;endSize=8;startSize=8;entryX=0.25;entryY=0;entryDx=0;entryDy=0;exitX=0;exitY=1;exitDx=0;exitDy=0;fillColor=#A20025;strokeColor=#FF0000;" edge="1" parent="WIyWlLk6GJQsqaUBKTNV-1" source="8aCBW3RIHDEwfv0liwKR-6" target="8aCBW3RIHDEwfv0liwKR-18">
          <mxGeometry width="50" height="50" relative="1" as="geometry">
            <mxPoint x="290" y="-990" as="sourcePoint" />
            <mxPoint x="30" y="-180" as="targetPoint" />
            <Array as="points">
              <mxPoint x="30" y="-990" />
            </Array>
          </mxGeometry>
        </mxCell>
        <mxCell id="8aCBW3RIHDEwfv0liwKR-29" value="" style="endArrow=classic;html=1;rounded=0;exitX=0.25;exitY=1;exitDx=0;exitDy=0;fillColor=#008a00;strokeColor=#005700;" edge="1" parent="WIyWlLk6GJQsqaUBKTNV-1" source="8aCBW3RIHDEwfv0liwKR-15" target="8aCBW3RIHDEwfv0liwKR-25">
          <mxGeometry width="50" height="50" relative="1" as="geometry">
            <mxPoint x="450" y="-600" as="sourcePoint" />
            <mxPoint x="500" y="-650" as="targetPoint" />
          </mxGeometry>
        </mxCell>
        <mxCell id="8aCBW3RIHDEwfv0liwKR-30" value="" style="endArrow=classic;html=1;rounded=0;exitX=0.75;exitY=1;exitDx=0;exitDy=0;entryX=0.75;entryY=0;entryDx=0;entryDy=0;fillColor=#008a00;strokeColor=#005700;" edge="1" parent="WIyWlLk6GJQsqaUBKTNV-1" source="8aCBW3RIHDEwfv0liwKR-15" target="8aCBW3RIHDEwfv0liwKR-27">
          <mxGeometry width="50" height="50" relative="1" as="geometry">
            <mxPoint x="450" y="-600" as="sourcePoint" />
            <mxPoint x="500" y="-650" as="targetPoint" />
          </mxGeometry>
        </mxCell>
        <mxCell id="8aCBW3RIHDEwfv0liwKR-31" value="" style="edgeStyle=segmentEdgeStyle;endArrow=classic;html=1;curved=0;rounded=0;endSize=8;startSize=8;exitX=0.75;exitY=1;exitDx=0;exitDy=0;entryX=1;entryY=0.5;entryDx=0;entryDy=0;fillColor=#008a00;strokeColor=#005700;" edge="1" parent="WIyWlLk6GJQsqaUBKTNV-1" source="8aCBW3RIHDEwfv0liwKR-27" target="8aCBW3RIHDEwfv0liwKR-6">
          <mxGeometry width="50" height="50" relative="1" as="geometry">
            <mxPoint x="450" y="-600" as="sourcePoint" />
            <mxPoint x="500" y="-650" as="targetPoint" />
            <Array as="points">
              <mxPoint x="760" y="-660" />
              <mxPoint x="810" y="-660" />
              <mxPoint x="810" y="-1020" />
            </Array>
          </mxGeometry>
        </mxCell>
        <mxCell id="8aCBW3RIHDEwfv0liwKR-32" value="POWRÓT" style="rounded=1;whiteSpace=wrap;html=1;fillColor=#0050ef;fontColor=#000000;strokeColor=#001DBC;" vertex="1" parent="WIyWlLk6GJQsqaUBKTNV-1">
          <mxGeometry x="480" y="-730" width="120" height="60" as="geometry" />
        </mxCell>
        <mxCell id="8aCBW3RIHDEwfv0liwKR-33" value="" style="endArrow=classic;html=1;rounded=0;exitX=0.25;exitY=1;exitDx=0;exitDy=0;entryX=0.5;entryY=0;entryDx=0;entryDy=0;fillColor=#0050ef;strokeColor=#001DBC;" edge="1" parent="WIyWlLk6GJQsqaUBKTNV-1" source="8aCBW3RIHDEwfv0liwKR-16" target="8aCBW3RIHDEwfv0liwKR-26">
          <mxGeometry width="50" height="50" relative="1" as="geometry">
            <mxPoint x="450" y="-720" as="sourcePoint" />
            <mxPoint x="500" y="-770" as="targetPoint" />
          </mxGeometry>
        </mxCell>
        <mxCell id="8aCBW3RIHDEwfv0liwKR-34" value="" style="endArrow=classic;html=1;rounded=0;exitX=0.75;exitY=1;exitDx=0;exitDy=0;entryX=0.5;entryY=0;entryDx=0;entryDy=0;fillColor=#0050ef;strokeColor=#001DBC;" edge="1" parent="WIyWlLk6GJQsqaUBKTNV-1" source="8aCBW3RIHDEwfv0liwKR-16" target="8aCBW3RIHDEwfv0liwKR-32">
          <mxGeometry width="50" height="50" relative="1" as="geometry">
            <mxPoint x="450" y="-720" as="sourcePoint" />
            <mxPoint x="500" y="-770" as="targetPoint" />
          </mxGeometry>
        </mxCell>
        <mxCell id="8aCBW3RIHDEwfv0liwKR-35" value="" style="edgeStyle=segmentEdgeStyle;endArrow=classic;html=1;curved=0;rounded=0;endSize=8;startSize=8;exitX=0.5;exitY=1;exitDx=0;exitDy=0;fillColor=#0050ef;strokeColor=#001DBC;" edge="1" parent="WIyWlLk6GJQsqaUBKTNV-1" source="8aCBW3RIHDEwfv0liwKR-32">
          <mxGeometry width="50" height="50" relative="1" as="geometry">
            <mxPoint x="560" y="-570" as="sourcePoint" />
            <mxPoint x="450" y="-1020" as="targetPoint" />
            <Array as="points">
              <mxPoint x="540" y="-630" />
              <mxPoint x="810" y="-630" />
              <mxPoint x="810" y="-1020" />
            </Array>
          </mxGeometry>
        </mxCell>
        <mxCell id="8aCBW3RIHDEwfv0liwKR-36" value="&lt;div&gt;PRZEJŚCIE DO &lt;br&gt;&lt;/div&gt;&lt;div&gt;NOWA LISTA&lt;br&gt;&lt;/div&gt;" style="rounded=1;whiteSpace=wrap;html=1;fillColor=#e3c800;strokeColor=#B09500;fontColor=#000000;" vertex="1" parent="WIyWlLk6GJQsqaUBKTNV-1">
          <mxGeometry x="110" y="-820" width="120" height="60" as="geometry" />
        </mxCell>
        <mxCell id="8aCBW3RIHDEwfv0liwKR-37" value="&lt;div&gt;PRZEJŚCIE DO&lt;/div&gt;&lt;div&gt;UTWORZONE LISTY&lt;br&gt;&lt;/div&gt;" style="rounded=1;whiteSpace=wrap;html=1;fillColor=#f0a30a;fontColor=#000000;strokeColor=#BD7000;" vertex="1" parent="WIyWlLk6GJQsqaUBKTNV-1">
          <mxGeometry x="260" y="-820" width="120" height="60" as="geometry" />
        </mxCell>
        <mxCell id="8aCBW3RIHDEwfv0liwKR-38" value="POWRÓT" style="rounded=1;whiteSpace=wrap;html=1;fillColor=#fa6800;fontColor=#000000;strokeColor=#C73500;" vertex="1" parent="WIyWlLk6GJQsqaUBKTNV-1">
          <mxGeometry x="180" y="-730" width="120" height="60" as="geometry" />
        </mxCell>
        <mxCell id="8aCBW3RIHDEwfv0liwKR-39" value="" style="endArrow=classic;html=1;rounded=0;exitX=0.808;exitY=1.017;exitDx=0;exitDy=0;exitPerimeter=0;entryX=0.5;entryY=0;entryDx=0;entryDy=0;fillColor=#fa6800;strokeColor=#C73500;" edge="1" parent="WIyWlLk6GJQsqaUBKTNV-1" source="8aCBW3RIHDEwfv0liwKR-17" target="8aCBW3RIHDEwfv0liwKR-37">
          <mxGeometry width="50" height="50" relative="1" as="geometry">
            <mxPoint x="450" y="-780" as="sourcePoint" />
            <mxPoint x="500" y="-830" as="targetPoint" />
          </mxGeometry>
        </mxCell>
        <mxCell id="8aCBW3RIHDEwfv0liwKR-40" value="" style="endArrow=classic;html=1;rounded=0;exitX=0.25;exitY=1;exitDx=0;exitDy=0;entryX=0.5;entryY=0;entryDx=0;entryDy=0;fillColor=#fa6800;strokeColor=#C73500;" edge="1" parent="WIyWlLk6GJQsqaUBKTNV-1" source="8aCBW3RIHDEwfv0liwKR-17" target="8aCBW3RIHDEwfv0liwKR-36">
          <mxGeometry width="50" height="50" relative="1" as="geometry">
            <mxPoint x="450" y="-780" as="sourcePoint" />
            <mxPoint x="500" y="-830" as="targetPoint" />
          </mxGeometry>
        </mxCell>
        <mxCell id="8aCBW3RIHDEwfv0liwKR-41" value="" style="endArrow=classic;html=1;rounded=0;exitX=0.5;exitY=1;exitDx=0;exitDy=0;entryX=0.5;entryY=0;entryDx=0;entryDy=0;fillColor=#fa6800;strokeColor=#C73500;" edge="1" parent="WIyWlLk6GJQsqaUBKTNV-1" source="8aCBW3RIHDEwfv0liwKR-17" target="8aCBW3RIHDEwfv0liwKR-38">
          <mxGeometry width="50" height="50" relative="1" as="geometry">
            <mxPoint x="450" y="-780" as="sourcePoint" />
            <mxPoint x="500" y="-830" as="targetPoint" />
          </mxGeometry>
        </mxCell>
        <mxCell id="8aCBW3RIHDEwfv0liwKR-44" value="" style="edgeStyle=segmentEdgeStyle;endArrow=classic;html=1;curved=0;rounded=0;endSize=8;startSize=8;exitX=0.5;exitY=1;exitDx=0;exitDy=0;fillColor=#fa6800;strokeColor=#C73500;" edge="1" parent="WIyWlLk6GJQsqaUBKTNV-1" source="8aCBW3RIHDEwfv0liwKR-38">
          <mxGeometry width="50" height="50" relative="1" as="geometry">
            <mxPoint x="400" y="-600" as="sourcePoint" />
            <mxPoint x="460" y="-1020" as="targetPoint" />
            <Array as="points">
              <mxPoint x="240" y="-610" />
              <mxPoint x="810" y="-610" />
              <mxPoint x="810" y="-1020" />
            </Array>
          </mxGeometry>
        </mxCell>
        <mxCell id="8aCBW3RIHDEwfv0liwKR-45" value="&lt;div&gt;WYPEŁNIANIE &lt;br&gt;&lt;/div&gt;&lt;div&gt;FORMULARZA&lt;br&gt;&lt;/div&gt;" style="rounded=1;whiteSpace=wrap;html=1;fillColor=#e3c800;fontColor=#000000;strokeColor=#B09500;" vertex="1" parent="WIyWlLk6GJQsqaUBKTNV-1">
          <mxGeometry x="80" y="-630" width="120" height="60" as="geometry" />
        </mxCell>
        <mxCell id="8aCBW3RIHDEwfv0liwKR-46" value="&lt;div&gt;TWORZENIE&lt;/div&gt;&lt;div&gt;NOWEJ LISTY&lt;br&gt;&lt;/div&gt;" style="rounded=1;whiteSpace=wrap;html=1;fillColor=#e3c800;fontColor=#000000;strokeColor=#B09500;" vertex="1" parent="WIyWlLk6GJQsqaUBKTNV-1">
          <mxGeometry x="80" y="-470" width="120" height="60" as="geometry" />
        </mxCell>
        <mxCell id="8aCBW3RIHDEwfv0liwKR-47" value="" style="endArrow=classic;html=1;rounded=0;exitX=0.25;exitY=1;exitDx=0;exitDy=0;entryX=0.5;entryY=0;entryDx=0;entryDy=0;fillColor=#e3c800;strokeColor=#B09500;" edge="1" parent="WIyWlLk6GJQsqaUBKTNV-1" source="8aCBW3RIHDEwfv0liwKR-36" target="8aCBW3RIHDEwfv0liwKR-45">
          <mxGeometry width="50" height="50" relative="1" as="geometry">
            <mxPoint x="450" y="-660" as="sourcePoint" />
            <mxPoint x="500" y="-710" as="targetPoint" />
          </mxGeometry>
        </mxCell>
        <mxCell id="8aCBW3RIHDEwfv0liwKR-48" value="" style="endArrow=classic;html=1;rounded=0;exitX=0.5;exitY=1;exitDx=0;exitDy=0;fillColor=#e3c800;strokeColor=#B09500;" edge="1" parent="WIyWlLk6GJQsqaUBKTNV-1" source="8aCBW3RIHDEwfv0liwKR-45" target="8aCBW3RIHDEwfv0liwKR-46">
          <mxGeometry width="50" height="50" relative="1" as="geometry">
            <mxPoint x="450" y="-660" as="sourcePoint" />
            <mxPoint x="500" y="-710" as="targetPoint" />
          </mxGeometry>
        </mxCell>
        <mxCell id="8aCBW3RIHDEwfv0liwKR-49" value="" style="endArrow=classic;html=1;rounded=0;exitX=0.5;exitY=1;exitDx=0;exitDy=0;entryX=0;entryY=0.5;entryDx=0;entryDy=0;fillColor=#e3c800;strokeColor=#B09500;" edge="1" parent="WIyWlLk6GJQsqaUBKTNV-1" source="8aCBW3RIHDEwfv0liwKR-46" target="8aCBW3RIHDEwfv0liwKR-36">
          <mxGeometry relative="1" as="geometry">
            <mxPoint x="120" y="-410" as="sourcePoint" />
            <mxPoint x="90" y="-790" as="targetPoint" />
            <Array as="points">
              <mxPoint x="140" y="-390" />
              <mxPoint x="60" y="-390" />
              <mxPoint x="60" y="-790" />
            </Array>
          </mxGeometry>
        </mxCell>
        <mxCell id="8aCBW3RIHDEwfv0liwKR-50" value="&lt;div&gt;BŁĄD&lt;/div&gt;&lt;div&gt;WYPEŁNIENIA &lt;br&gt;&lt;/div&gt;&lt;div&gt;FORMULARZA&lt;br&gt;&lt;/div&gt;" style="edgeLabel;resizable=0;html=1;;align=center;verticalAlign=middle;" connectable="0" vertex="1" parent="8aCBW3RIHDEwfv0liwKR-49">
          <mxGeometry relative="1" as="geometry" />
        </mxCell>
        <mxCell id="8aCBW3RIHDEwfv0liwKR-51" value="&lt;div&gt;UTWORZENIE &lt;br&gt;&lt;/div&gt;&lt;div&gt;NOWEJ LISTY&lt;br&gt;&lt;/div&gt;" style="rounded=1;whiteSpace=wrap;html=1;fillColor=#e3c800;fontColor=#000000;strokeColor=#B09500;" vertex="1" parent="WIyWlLk6GJQsqaUBKTNV-1">
          <mxGeometry x="80" y="-330" width="120" height="60" as="geometry" />
        </mxCell>
        <mxCell id="8aCBW3RIHDEwfv0liwKR-52" value="" style="endArrow=classic;html=1;rounded=0;exitX=0.75;exitY=1;exitDx=0;exitDy=0;entryX=0.75;entryY=0;entryDx=0;entryDy=0;fillColor=#e3c800;strokeColor=#B09500;" edge="1" parent="WIyWlLk6GJQsqaUBKTNV-1" source="8aCBW3RIHDEwfv0liwKR-46" target="8aCBW3RIHDEwfv0liwKR-51">
          <mxGeometry width="50" height="50" relative="1" as="geometry">
            <mxPoint x="450" y="-480" as="sourcePoint" />
            <mxPoint x="500" y="-530" as="targetPoint" />
          </mxGeometry>
        </mxCell>
        <mxCell id="8aCBW3RIHDEwfv0liwKR-54" value="POWRÓT" style="rounded=1;whiteSpace=wrap;html=1;fillColor=#e3c800;fontColor=#000000;strokeColor=#B09500;" vertex="1" parent="WIyWlLk6GJQsqaUBKTNV-1">
          <mxGeometry x="150" y="-550" width="120" height="60" as="geometry" />
        </mxCell>
        <mxCell id="8aCBW3RIHDEwfv0liwKR-55" value="" style="edgeStyle=segmentEdgeStyle;endArrow=classic;html=1;curved=0;rounded=0;endSize=8;startSize=8;exitX=0.5;exitY=1;exitDx=0;exitDy=0;entryX=0.5;entryY=0;entryDx=0;entryDy=0;fillColor=#e3c800;strokeColor=#B09500;" edge="1" parent="WIyWlLk6GJQsqaUBKTNV-1" source="8aCBW3RIHDEwfv0liwKR-36" target="8aCBW3RIHDEwfv0liwKR-54">
          <mxGeometry width="50" height="50" relative="1" as="geometry">
            <mxPoint x="450" y="-600" as="sourcePoint" />
            <mxPoint x="500" y="-650" as="targetPoint" />
            <Array as="points">
              <mxPoint x="170" y="-650" />
              <mxPoint x="210" y="-650" />
            </Array>
          </mxGeometry>
        </mxCell>
        <mxCell id="8aCBW3RIHDEwfv0liwKR-56" value="" style="edgeStyle=orthogonalEdgeStyle;elbow=vertical;endArrow=classic;html=1;rounded=0;endSize=8;startSize=8;exitX=0.5;exitY=1;exitDx=0;exitDy=0;entryX=1;entryY=0.5;entryDx=0;entryDy=0;fillColor=#e3c800;strokeColor=#B09500;" edge="1" parent="WIyWlLk6GJQsqaUBKTNV-1" source="8aCBW3RIHDEwfv0liwKR-54" target="8aCBW3RIHDEwfv0liwKR-17">
          <mxGeometry width="50" height="50" relative="1" as="geometry">
            <mxPoint x="300" y="-500" as="sourcePoint" />
            <mxPoint x="390" y="-910" as="targetPoint" />
            <Array as="points">
              <mxPoint x="210" y="-480" />
              <mxPoint x="391" y="-480" />
              <mxPoint x="391" y="-910" />
            </Array>
          </mxGeometry>
        </mxCell>
        <mxCell id="8aCBW3RIHDEwfv0liwKR-60" value="&lt;div&gt;PRZEGLĄD &lt;br&gt;&lt;/div&gt;&lt;div&gt;UTWORZONYCH LIST&lt;br&gt;&lt;/div&gt;" style="rounded=1;whiteSpace=wrap;html=1;fillColor=#f0a30a;fontColor=#000000;strokeColor=#BD7000;" vertex="1" parent="WIyWlLk6GJQsqaUBKTNV-1">
          <mxGeometry x="260" y="-460" width="120" height="60" as="geometry" />
        </mxCell>
        <mxCell id="8aCBW3RIHDEwfv0liwKR-61" value="&lt;div&gt;ZAMKNIĘCIE &lt;br&gt;&lt;/div&gt;&lt;div&gt;UTWORZONEJ&lt;/div&gt;&lt;div&gt;LISTY&lt;br&gt;&lt;/div&gt;" style="rounded=1;whiteSpace=wrap;html=1;fillColor=#f0a30a;fontColor=#000000;strokeColor=#BD7000;" vertex="1" parent="WIyWlLk6GJQsqaUBKTNV-1">
          <mxGeometry x="260" y="-330" width="120" height="60" as="geometry" />
        </mxCell>
        <mxCell id="8aCBW3RIHDEwfv0liwKR-62" value="" style="endArrow=classic;html=1;rounded=0;exitX=0.5;exitY=1;exitDx=0;exitDy=0;entryX=0.5;entryY=0;entryDx=0;entryDy=0;fillColor=#f0a30a;strokeColor=#BD7000;" edge="1" parent="WIyWlLk6GJQsqaUBKTNV-1" source="8aCBW3RIHDEwfv0liwKR-37" target="8aCBW3RIHDEwfv0liwKR-60">
          <mxGeometry width="50" height="50" relative="1" as="geometry">
            <mxPoint x="450" y="-540" as="sourcePoint" />
            <mxPoint x="500" y="-590" as="targetPoint" />
          </mxGeometry>
        </mxCell>
        <mxCell id="8aCBW3RIHDEwfv0liwKR-63" value="" style="endArrow=classic;html=1;rounded=0;exitX=0.5;exitY=1;exitDx=0;exitDy=0;entryX=0.5;entryY=0;entryDx=0;entryDy=0;fillColor=#f0a30a;strokeColor=#BD7000;" edge="1" parent="WIyWlLk6GJQsqaUBKTNV-1" source="8aCBW3RIHDEwfv0liwKR-60" target="8aCBW3RIHDEwfv0liwKR-61">
          <mxGeometry width="50" height="50" relative="1" as="geometry">
            <mxPoint x="450" y="-360" as="sourcePoint" />
            <mxPoint x="500" y="-410" as="targetPoint" />
            <Array as="points" />
          </mxGeometry>
        </mxCell>
        <mxCell id="8aCBW3RIHDEwfv0liwKR-64" value="POWRÓT" style="rounded=1;whiteSpace=wrap;html=1;fillColor=#f0a30a;fontColor=#000000;strokeColor=#BD7000;" vertex="1" parent="WIyWlLk6GJQsqaUBKTNV-1">
          <mxGeometry x="414" y="-460" width="120" height="60" as="geometry" />
        </mxCell>
        <mxCell id="8aCBW3RIHDEwfv0liwKR-65" value="" style="endArrow=classic;html=1;rounded=0;exitX=0.75;exitY=1;exitDx=0;exitDy=0;entryX=0.5;entryY=0;entryDx=0;entryDy=0;" edge="1" parent="WIyWlLk6GJQsqaUBKTNV-1" source="8aCBW3RIHDEwfv0liwKR-37" target="8aCBW3RIHDEwfv0liwKR-64">
          <mxGeometry width="50" height="50" relative="1" as="geometry">
            <mxPoint x="450" y="-360" as="sourcePoint" />
            <mxPoint x="500" y="-410" as="targetPoint" />
          </mxGeometry>
        </mxCell>
        <mxCell id="8aCBW3RIHDEwfv0liwKR-66" value="" style="edgeStyle=segmentEdgeStyle;endArrow=classic;html=1;curved=0;rounded=0;endSize=8;startSize=8;exitX=0.5;exitY=1;exitDx=0;exitDy=0;fillColor=#f0a30a;strokeColor=#BD7000;" edge="1" parent="WIyWlLk6GJQsqaUBKTNV-1" source="8aCBW3RIHDEwfv0liwKR-64">
          <mxGeometry width="50" height="50" relative="1" as="geometry">
            <mxPoint x="450" y="-570" as="sourcePoint" />
            <mxPoint x="310" y="-910" as="targetPoint" />
            <Array as="points">
              <mxPoint x="474" y="-370" />
              <mxPoint x="390" y="-370" />
            </Array>
          </mxGeometry>
        </mxCell>
        <mxCell id="8aCBW3RIHDEwfv0liwKR-67" value="&lt;div&gt;ZAKUPIENIE&lt;/div&gt;&lt;div&gt;PRODUKTÓW Z &lt;br&gt;&lt;/div&gt;&lt;div&gt;LISTY I PODANIE &lt;br&gt;&lt;/div&gt;&lt;div&gt;ICH CENY&lt;br&gt;&lt;/div&gt;" style="rounded=1;whiteSpace=wrap;html=1;fillColor=#f0a30a;fontColor=#000000;strokeColor=#BD7000;" vertex="1" parent="WIyWlLk6GJQsqaUBKTNV-1">
          <mxGeometry x="180" y="-230" width="120" height="60" as="geometry" />
        </mxCell>
        <mxCell id="8aCBW3RIHDEwfv0liwKR-68" value="&lt;div&gt;NIE ZAKUPIENIE&lt;/div&gt;&lt;div&gt;PRODUKTÓW Z &lt;br&gt;&lt;/div&gt;&lt;div&gt;LISTY&lt;br&gt;&lt;/div&gt;" style="rounded=1;whiteSpace=wrap;html=1;fillColor=#f0a30a;fontColor=#000000;strokeColor=#BD7000;" vertex="1" parent="WIyWlLk6GJQsqaUBKTNV-1">
          <mxGeometry x="340" y="-230" width="120" height="60" as="geometry" />
        </mxCell>
        <mxCell id="8aCBW3RIHDEwfv0liwKR-69" value="" style="endArrow=classic;html=1;rounded=0;exitX=0.75;exitY=1;exitDx=0;exitDy=0;entryX=0.5;entryY=0;entryDx=0;entryDy=0;fillColor=#f0a30a;strokeColor=#BD7000;" edge="1" parent="WIyWlLk6GJQsqaUBKTNV-1" source="8aCBW3RIHDEwfv0liwKR-61" target="8aCBW3RIHDEwfv0liwKR-68">
          <mxGeometry width="50" height="50" relative="1" as="geometry">
            <mxPoint x="450" y="-390" as="sourcePoint" />
            <mxPoint x="500" y="-440" as="targetPoint" />
          </mxGeometry>
        </mxCell>
        <mxCell id="8aCBW3RIHDEwfv0liwKR-70" value="" style="endArrow=classic;html=1;rounded=0;exitX=0.25;exitY=1;exitDx=0;exitDy=0;entryX=0.5;entryY=0;entryDx=0;entryDy=0;fillColor=#f0a30a;strokeColor=#BD7000;" edge="1" parent="WIyWlLk6GJQsqaUBKTNV-1" source="8aCBW3RIHDEwfv0liwKR-61" target="8aCBW3RIHDEwfv0liwKR-67">
          <mxGeometry width="50" height="50" relative="1" as="geometry">
            <mxPoint x="450" y="-390" as="sourcePoint" />
            <mxPoint x="500" y="-440" as="targetPoint" />
          </mxGeometry>
        </mxCell>
      </root>
    </mxGraphModel>
  </diagram>
</mxfile>
